<?xml version="1.0" standalone="no"?>
<!DOCTYPE svg PUBLIC "-//W3C//DTD SVG 20010904//EN"
 "http://www.w3.org/TR/2001/REC-SVG-20010904/DTD/svg10.dtd">
<svg version="1.0" xmlns="http://www.w3.org/2000/svg"
 width="300.000000pt" height="300.000000pt" viewBox="0 0 300.000000 300.000000"
 preserveAspectRatio="xMidYMid meet">
<metadata>
Created by potrace 1.10, written by Peter Selinger 2001-2011
</metadata>
<g transform="translate(0.000000,300.000000) scale(0.100000,-0.100000)"
fill="#000000" stroke="none">
<path d="M1320 2840 c-126 -20 -154 -28 -285 -78 -120 -46 -284 -141 -331
-193 -31 -34 -45 -38 -219 -57 l-60 -7 -7 -50 c-29 -196 -39 -337 -40 -520 0
-142 9 -284 26 -415 17 -134 68 -338 118 -475 105 -286 295 -565 503 -735 146
-119 295 -207 417 -245 67 -22 93 -16 224 45 301 140 581 433 746 780 38 80
101 247 113 300 2 8 11 40 19 71 29 106 56 264 66 384 18 213 11 535 -16 720
-3 22 -9 63 -12 90 l-7 50 -65 7 c-162 17 -177 21 -230 68 -152 135 -438 248
-672 266 l-88 7 -6 -32 c-8 -39 -20 -40 -27 -1 -6 29 -8 30 -64 29 -32 -1 -78
-5 -103 -9z m159 -35 c7 -19 16 -35 21 -35 5 0 14 16 20 35 14 41 15 41 150
20 115 -19 212 -48 303 -92 37 -18 72 -33 77 -33 5 0 31 -12 57 -28 26 -15 60
-33 74 -41 15 -7 51 -33 80 -57 60 -49 83 -57 211 -74 100 -14 88 6 115 -180
21 -145 24 -588 5 -730 -70 -516 -243 -892 -536 -1169 -27 -25 -56 -53 -65
-62 -136 -132 -341 -260 -473 -292 -64 -16 -289 98 -452 229 -365 294 -572
700 -658 1289 -27 192 -15 651 23 852 l10 51 87 12 c118 15 156 28 191 62 107
104 377 226 571 258 41 6 82 13 90 15 8 1 31 3 50 4 32 1 37 -3 49 -34z"/>
<path d="M1265 2750 c-192 -41 -410 -141 -499 -232 -45 -45 -83 -60 -181 -72
l-90 -11 -12 -75 c-6 -41 -17 -149 -23 -240 -40 -562 90 -1095 357 -1470 159
-223 421 -433 630 -505 51 -18 52 -18 115 4 34 13 99 43 143 68 421 241 708
687 804 1254 44 254 47 638 8 889 l-12 74 -90 12 c-99 12 -131 25 -190 79 -98
90 -313 188 -492 224 -138 28 -154 28 -175 -9 -21 -38 -60 -48 -94 -25 -15 9
-29 26 -31 36 -7 24 -47 24 -168 -1z m153 -41 c26 -23 21 -39 -11 -39 -50 1
-151 -22 -257 -57 -90 -30 -230 -94 -230 -105 0 -4 -5 -8 -11 -8 -12 0 -92
-60 -119 -89 -15 -16 -79 -41 -157 -61 -37 -9 -44 -15 -52 -48 -24 -88 -33
-425 -17 -612 13 -150 66 -442 87 -480 5 -8 15 -35 23 -60 17 -51 37 -101 73
-180 51 -111 58 -125 66 -128 4 -2 7 -8 7 -14 0 -5 15 -30 32 -56 18 -26 32
-50 31 -54 -2 -4 8 -15 21 -25 12 -10 25 -23 27 -30 15 -42 161 -190 254 -257
22 -16 43 -34 47 -40 4 -6 8 -7 8 -3 0 5 7 2 15 -5 30 -27 44 -38 51 -38 3 0
18 -9 33 -19 15 -11 56 -29 91 -41 53 -18 71 -20 105 -11 78 20 130 48 261
143 68 48 184 152 184 163 0 2 12 16 28 32 15 15 38 43 52 61 14 19 31 40 38
47 6 8 12 18 12 23 0 5 8 16 19 26 10 9 26 34 36 56 10 22 21 40 25 40 3 0 12
16 20 35 8 19 17 35 22 35 4 0 8 7 8 15 0 14 5 26 49 126 11 26 32 84 46 130
14 46 30 94 36 107 5 13 9 36 9 53 0 17 4 28 8 25 4 -2 8 3 9 12 0 9 7 62 16
117 16 103 31 308 30 430 0 141 -15 369 -26 392 -9 21 -58 43 -97 43 -8 0 -28
7 -44 15 -15 8 -34 15 -41 15 -7 0 -15 6 -18 13 -17 44 -258 183 -367 213 -8
2 -40 11 -70 19 -30 9 -71 18 -90 21 -19 2 -46 7 -60 11 -14 3 -32 5 -42 4
-26 -3 -29 14 -6 39 19 20 27 22 86 16 65 -7 139 -22 177 -36 11 -4 47 -16 80
-26 60 -19 177 -80 183 -96 2 -4 9 -8 15 -8 7 0 24 -10 37 -22 94 -84 154
-117 217 -118 17 0 35 -5 38 -10 4 -6 10 -8 14 -6 4 3 17 -1 28 -9 20 -14 25
-33 41 -170 11 -97 7 -542 -7 -645 -18 -140 -57 -322 -81 -385 -4 -11 -18 -54
-31 -95 -13 -41 -26 -77 -29 -80 -3 -3 -12 -21 -20 -40 -32 -84 -135 -270
-160 -290 -3 -3 -22 -27 -40 -55 -57 -84 -119 -150 -227 -242 -89 -76 -156
-119 -264 -171 -120 -57 -138 -59 -218 -26 -36 15 -70 31 -76 35 -5 4 -32 19
-60 34 -123 67 -287 212 -397 351 -104 130 -222 346 -271 494 -31 92 -73 250
-82 310 -4 25 -9 54 -12 65 -38 178 -42 653 -7 865 5 32 24 53 49 55 38 3 115
20 140 31 16 7 61 38 100 68 140 113 392 212 571 225 11 0 30 -8 42 -20z m62
-71 c15 -9 24 -9 44 1 88 47 477 -83 618 -207 67 -59 128 -90 197 -101 28 -4
53 -10 56 -12 15 -15 27 -270 22 -464 -11 -432 -94 -743 -280 -1050 -94 -154
-263 -331 -409 -429 -88 -58 -202 -116 -229 -116 -32 0 -195 90 -280 154 -327
247 -535 628 -614 1121 -22 136 -31 520 -16 666 7 62 14 115 16 118 3 2 28 8
56 12 62 10 142 49 189 94 81 77 253 160 400 194 138 32 200 37 230 19z"/>
<path d="M1275 2580 c-157 -36 -292 -99 -395 -185 -57 -48 -161 -105 -190
-105 -27 0 -50 -34 -57 -81 -9 -66 -9 -453 0 -544 45 -461 212 -843 484 -1106
122 -118 279 -223 365 -244 66 -17 299 135 446 289 205 217 336 494 409 866
25 128 27 151 27 450 1 234 -2 321 -11 337 -7 12 -30 27 -50 34 -65 20 -116
50 -183 104 -110 90 -237 148 -407 185 -123 27 -145 26 -181 -11 l-29 -30 -34
30 c-40 37 -73 39 -194 11z m165 -14 c0 -23 29 -46 57 -46 29 0 63 25 63 47 0
17 19 16 120 -3 161 -30 319 -102 422 -190 61 -52 126 -88 190 -104 l45 -12 7
-66 c12 -127 6 -457 -10 -584 -42 -336 -155 -640 -318 -858 -120 -161 -313
-325 -468 -401 l-48 -23 -47 23 c-171 82 -391 278 -505 451 -154 233 -253 523
-287 842 -12 107 -15 444 -5 550 l7 66 45 12 c63 16 110 41 183 100 118 95
250 156 409 190 106 23 140 24 140 6z"/>
<path d="M1281 2282 c-12 -23 4 -52 29 -52 11 0 20 4 20 9 0 5 -8 8 -17 7 -12
-1 -18 6 -18 19 0 13 6 20 18 19 9 -1 17 2 17 7 0 16 -39 9 -49 -9z"/>
<path d="M1348 2293 c6 -2 12 -18 12 -34 0 -18 4 -28 10 -24 6 4 8 16 4 27 -4
13 -1 24 7 29 10 6 4 8 -16 8 -16 0 -24 -3 -17 -6z"/>
<path d="M1432 2273 c5 -49 57 -40 58 10 0 9 -4 17 -10 17 -5 0 -10 -11 -10
-25 0 -14 -4 -25 -10 -25 -5 0 -10 11 -10 25 0 14 -5 25 -11 25 -6 0 -9 -12
-7 -27z"/>
<path d="M1508 2270 c-3 -16 -1 -30 4 -30 4 0 8 7 8 17 0 14 2 14 20 -2 17
-16 20 -16 20 -2 0 8 3 22 6 31 3 9 1 16 -5 16 -6 0 -11 -7 -11 -17 0 -15 -1
-15 -19 1 -18 16 -19 16 -23 -14z"/>
<path d="M1620 2296 c0 -1 5 -18 11 -36 l12 -33 13 24 c7 13 13 31 13 39 0 8
-5 4 -11 -10 -11 -25 -11 -25 -15 -2 -3 12 -9 22 -14 22 -5 0 -9 -2 -9 -4z"/>
<path d="M1169 2283 c-24 -6 -13 -63 12 -63 11 0 19 5 19 10 0 6 -3 9 -7 9
-20 -3 -26 2 -13 11 13 9 13 10 0 10 -13 0 -13 1 0 10 17 11 11 18 -11 13z"/>
<path d="M1240 2260 c0 -16 5 -30 10 -30 6 0 10 14 10 30 0 17 -4 30 -10 30
-5 0 -10 -13 -10 -30z"/>
<path d="M1690 2260 c0 -22 5 -30 18 -29 11 0 12 2 4 6 -10 4 -10 8 -1 19 6 8
8 14 3 14 -5 0 -2 5 6 10 12 8 11 10 -7 10 -19 0 -23 -6 -23 -30z"/>
<path d="M1742 2259 c-2 -23 1 -30 12 -26 7 3 19 0 26 -6 10 -10 12 -8 6 6 -3
10 -6 27 -6 38 0 12 -7 19 -18 19 -13 0 -18 -9 -20 -31z"/>
<path d="M1116 2265 c4 -9 0 -15 -9 -15 -8 0 -18 6 -20 13 -3 6 -6 -3 -6 -20
-1 -18 4 -33 9 -33 6 0 10 7 10 15 0 18 17 20 23 3 2 -7 7 -11 10 -8 8 7 -4
60 -14 60 -5 0 -6 -7 -3 -15z"/>
<path d="M1807 2274 c-3 -4 -2 -15 3 -25 7 -12 6 -19 -3 -22 -6 -3 -4 -6 7 -6
14 -1 17 4 14 24 -3 13 0 26 6 29 6 2 4 5 -5 5 -9 1 -19 -2 -22 -5z"/>
<path d="M1856 2252 c-4 -18 -5 -36 -2 -39 11 -12 17 5 14 39 l-3 33 -9 -33z"/>
<path d="M1005 2260 c-3 -5 1 -10 9 -10 10 0 16 -9 16 -25 0 -14 5 -25 11 -25
7 0 9 9 6 22 -4 12 -1 28 5 35 8 10 5 13 -15 13 -14 0 -29 -4 -32 -10z"/>
<path d="M1897 2264 c8 -4 10 -16 6 -35 -3 -18 -1 -29 6 -29 6 0 11 14 11 31
0 17 4 28 10 24 6 -3 10 -1 10 4 0 6 -12 11 -27 10 -16 0 -23 -3 -16 -5z"/>
<path d="M1958 2230 c5 -33 16 -39 26 -12 3 9 9 24 13 32 5 13 4 13 -10 1 -11
-9 -17 -10 -17 -2 0 6 -4 11 -8 11 -5 0 -7 -13 -4 -30z"/>
<path d="M1284 2133 c-66 -13 -92 -110 -43 -159 48 -47 149 -42 149 9 l0 21
-16 -22 c-21 -30 -68 -29 -99 3 -34 33 -35 97 -3 119 33 23 74 20 92 -6 l16
-22 0 26 c0 35 -28 44 -96 31z"/>
<path d="M1410 2127 c0 -9 11 -12 35 -9 l35 4 0 -70 c0 -51 -4 -75 -16 -86
-14 -15 -11 -16 33 -15 26 1 40 3 31 6 -15 4 -18 17 -18 84 0 77 1 79 24 79
13 0 26 -6 29 -12 2 -7 8 -10 12 -6 4 4 5 14 2 23 -8 20 -167 23 -167 2z"/>
<path d="M1739 2122 c11 -8 13 -25 8 -72 -7 -80 3 -107 45 -118 67 -17 97 10
105 94 3 36 11 64 21 72 13 10 10 12 -24 12 -25 0 -34 -3 -26 -9 20 -12 5
-125 -19 -146 -22 -20 -57 -12 -68 17 -11 29 3 128 20 139 11 7 10 9 -6 9 -11
0 -31 3 -45 6 -18 4 -21 3 -11 -4z"/>
<path d="M1117 2113 c-23 -4 -25 -6 -14 -18 20 -20 31 -143 15 -163 -11 -13
-10 -15 5 -9 10 4 30 7 45 7 24 0 24 1 8 13 -15 11 -18 29 -20 95 0 45 -3 81
-6 80 -3 0 -17 -3 -33 -5z"/>
<path d="M1600 2044 c0 -11 5 -14 16 -10 9 3 29 6 45 6 16 0 29 5 29 10 0 6
-20 10 -45 10 -35 0 -45 -4 -45 -16z"/>
<path d="M875 1770 c-3 -11 -13 -20 -21 -20 -11 0 -14 -19 -14 -91 0 -69 3
-88 13 -83 9 6 9 5 0 -7 -21 -26 22 -173 75 -256 13 -21 42 -22 42 -1 0 5 7
16 15 24 13 14 15 13 12 -7 -3 -15 4 -30 17 -40 18 -15 18 -17 3 -15 -9 1 -22
7 -28 13 -12 12 -39 7 -39 -7 0 -19 34 -40 64 -40 32 0 33 1 31 39 -1 23 -14
55 -32 82 -54 81 -75 153 -79 277 -2 61 -7 112 -11 111 -4 0 -10 9 -15 20 -9
27 -25 27 -33 1z m25 -61 c0 -6 -4 -7 -10 -4 -13 8 -13 2 1 -29 7 -14 15 -23
19 -21 4 2 7 -2 7 -10 0 -11 -4 -12 -14 -4 -14 13 -16 9 -7 -15 3 -9 11 -13
17 -9 6 3 7 1 3 -6 -6 -8 -12 -9 -20 -2 -7 6 -15 9 -18 6 -4 -4 -4 83 1 108 2
11 21 -2 21 -14z m4 -165 c3 -8 2 -12 -4 -9 -15 10 -12 -5 6 -22 13 -13 13
-17 2 -24 -9 -6 -15 0 -20 19 -11 39 3 71 16 36z m59 -136 c-12 -20 -9 -42 7
-56 8 -8 9 -11 3 -7 -7 3 -13 0 -14 -7 0 -7 -4 -3 -9 9 -5 13 -15 21 -22 19
-7 -1 -10 -1 -5 1 4 3 7 9 7 14 0 12 22 38 33 39 5 0 5 -6 0 -12z"/>
<path d="M1250 1768 c0 -20 -1 -21 -20 -3 -32 29 -33 12 -1 -19 l29 -27 4 35
c2 20 0 36 -4 36 -4 0 -8 -10 -8 -22z"/>
<path d="M1280 1755 c0 -19 5 -35 10 -35 6 0 10 7 10 15 0 8 6 15 13 15 8 0 7
4 -3 10 -13 9 -13 11 0 20 12 8 11 10 -7 10 -20 0 -23 -5 -23 -35z"/>
<path d="M1340 1775 c-20 -25 -8 -50 25 -50 21 0 31 5 33 18 4 21 -14 47 -33
47 -7 0 -18 -7 -25 -15z m40 -20 c0 -15 -6 -25 -14 -25 -16 0 -25 19 -18 38 8
22 32 13 32 -13z"/>
<path d="M1410 1755 c0 -19 5 -35 10 -35 6 0 10 5 10 12 0 9 3 9 12 0 18 -18
38 -15 38 6 1 16 1 16 14 -1 12 -15 14 -16 20 -2 3 8 1 15 -4 15 -5 0 -12 10
-16 23 -7 20 -8 20 -19 -12 -8 -24 -14 -31 -19 -22 -4 7 -5 15 -2 18 8 9 -14
33 -30 33 -9 0 -14 -12 -14 -35z"/>
<path d="M1618 1783 c6 -2 12 -18 12 -34 0 -16 4 -29 8 -29 5 0 7 13 4 29 -3
22 0 30 15 34 10 3 2 5 -17 5 -19 0 -29 -2 -22 -5z"/>
<path d="M1714 1776 c-11 -28 1 -51 25 -51 32 0 49 28 32 49 -17 20 -50 21
-57 2z m44 -24 c2 -14 -2 -22 -12 -22 -19 0 -29 17 -22 36 8 22 30 12 34 -14z"/>
<path d="M1791 1754 c1 -33 2 -35 8 -14 l7 25 15 -22 c20 -32 29 -28 29 12 0
19 -4 35 -9 35 -5 0 -7 -10 -4 -22 l6 -23 -27 24 -26 24 1 -39z"/>
<path d="M2083 1770 c-3 -11 -9 -17 -14 -15 -4 3 -8 -36 -7 -87 0 -130 -37
-257 -97 -328 -7 -8 -15 -34 -17 -57 -3 -41 -2 -43 25 -43 35 0 67 16 67 34 0
23 -29 26 -44 5 -10 -15 -15 -17 -18 -7 -3 7 4 18 16 25 12 7 15 12 8 13 -7 0
-10 5 -7 10 9 15 25 12 25 -4 0 -12 30 -32 34 -24 23 45 27 58 21 69 -5 7 -4
10 3 5 25 -15 70 138 73 249 3 111 1 135 -15 135 -8 0 -18 9 -21 20 -8 26 -25
26 -32 0z m35 -126 c0 -19 -3 -33 -6 -30 -3 3 -11 1 -18 -5 -8 -7 -14 -6 -20
2 -4 7 -3 9 4 5 15 -9 25 11 24 46 0 15 3 26 8 23 4 -3 8 -21 8 -41z m-8 -93
c0 -5 -5 -32 -12 -59 -8 -36 -15 -49 -25 -45 -11 4 -10 9 4 26 17 19 17 20 1
14 -10 -3 -20 -1 -24 5 -4 6 -3 8 3 5 6 -4 19 3 29 15 19 20 19 21 -3 14 -15
-5 -23 -3 -23 4 0 6 5 8 10 5 6 -3 13 1 16 9 7 17 24 22 24 7z m-30 -125 c0
-8 6 -17 13 -20 6 -2 2 -4 -10 -2 -28 3 -37 11 -28 25 9 16 25 13 25 -3z m-20
-42 c0 -8 -4 -12 -10 -9 -6 3 -10 -5 -10 -19 0 -19 -4 -24 -16 -19 -11 4 -12
9 -5 16 6 6 11 18 11 26 0 11 -4 10 -16 -5 -15 -19 -15 -19 -5 1 11 24 51 31
51 9z"/>
<path d="M1524 1758 c3 -13 6 -26 6 -30 0 -13 38 -9 43 5 4 9 8 8 16 -3 16
-23 23 -6 10 24 -15 33 -25 33 -33 1 -4 -14 -11 -25 -16 -25 -6 0 -10 11 -10
25 0 14 -5 25 -11 25 -7 0 -9 -9 -5 -22z"/>
<path d="M1480 1664 c-14 -35 -5 -44 38 -43 20 0 32 3 25 5 -7 3 -9 12 -6 20
4 11 0 15 -12 12 -10 -2 -20 3 -23 11 -3 8 0 11 7 7 6 -4 11 -2 11 3 0 22 -31
10 -40 -15z"/>
<path d="M1080 1575 c-20 -24 -8 -50 25 -52 21 -1 23 0 7 4 -28 6 -28 49 1 47
9 -1 17 2 17 7 0 14 -36 10 -50 -6z"/>
<path d="M1150 1575 c-19 -23 -8 -50 22 -53 19 -2 28 2 33 18 12 39 -29 66
-55 35z m38 -23 c2 -14 -2 -22 -12 -22 -19 0 -29 17 -22 36 8 22 30 12 34 -14z"/>
<path d="M1358 1578 c-8 -20 1 -58 13 -58 10 0 10 14 0 50 -6 20 -8 22 -13 8z"/>
<path d="M1392 1558 c2 -28 7 -33 28 -33 21 0 26 5 28 34 2 22 0 31 -8 26 -6
-4 -10 -16 -8 -27 2 -12 -3 -23 -9 -25 -9 -3 -13 6 -13 26 0 17 -5 31 -11 31
-6 0 -9 -14 -7 -32z"/>
<path d="M1510 1569 c0 -21 -1 -21 -19 -5 -18 16 -19 16 -23 -14 -3 -16 -1
-30 4 -30 4 0 8 7 8 17 0 15 1 15 19 -1 18 -16 19 -16 23 14 3 17 1 33 -4 36
-4 3 -8 -5 -8 -17z"/>
<path d="M1581 1572 c-15 -28 5 -52 44 -52 18 0 36 6 39 13 5 10 7 10 12 0 12
-26 23 -12 13 17 -13 37 -22 38 -37 4 -15 -31 -57 -31 -57 1 0 15 6 19 23 18
13 -2 21 1 17 7 -10 16 -44 11 -54 -8z"/>
<path d="M1695 1580 c-3 -5 1 -10 11 -10 12 0 15 -6 12 -25 -3 -14 -1 -25 3
-25 5 0 9 14 9 31 0 17 4 28 10 24 6 -3 10 -1 10 4 0 14 -47 14 -55 1z"/>
<path d="M1800 1569 c-9 -15 -8 -24 1 -35 27 -33 79 1 58 39 -14 23 -46 21
-59 -4z m48 -17 c2 -14 -2 -22 -12 -22 -19 0 -29 17 -22 36 8 22 30 12 34 -14z"/>
<path d="M1878 1555 c-2 -19 0 -35 4 -35 4 0 8 7 8 17 0 15 1 15 18 0 27 -24
32 -21 32 18 0 19 -4 35 -10 35 -5 0 -10 -10 -10 -22 l-1 -23 -18 22 -19 23
-4 -35z"/>
<path d="M1221 1548 c0 -26 2 -29 8 -14 7 19 8 19 14 1 4 -10 10 -16 13 -13 7
7 -17 58 -28 58 -4 0 -8 -15 -7 -32z"/>
<path d="M1266 1564 c-3 -8 1 -22 9 -30 13 -14 15 -12 15 15 0 33 -14 42 -24
15z"/>
<path d="M1170 1480 c0 -5 5 -10 10 -10 6 0 10 -11 10 -25 0 -14 5 -25 10 -25
6 0 10 14 10 31 0 17 4 28 10 24 6 -3 10 -1 10 4 0 6 -13 11 -30 11 -16 0 -30
-4 -30 -10z"/>
<path d="M1240 1455 c0 -30 3 -35 23 -35 18 0 19 2 7 10 -13 9 -13 11 0 20 10
6 11 10 3 10 -7 0 -13 5 -13 11 0 5 5 7 10 4 6 -3 10 -1 10 4 0 6 -9 11 -20
11 -16 0 -20 -7 -20 -35z"/>
<path d="M1303 1483 c-7 -2 -13 -15 -13 -28 0 -27 33 -50 53 -38 8 5 3 9 -13
13 -34 8 -35 46 -2 43 13 -2 21 1 17 7 -7 11 -22 12 -42 3z"/>
<path d="M1360 1458 c0 -21 5 -38 10 -38 6 0 10 7 10 15 0 8 5 15 10 15 6 0
10 -7 10 -15 0 -8 5 -15 10 -15 6 0 10 17 10 38 -1 35 -2 36 -15 18 -15 -20
-15 -20 -30 0 -13 18 -14 17 -15 -18z"/>
<path d="M1490 1468 c0 -20 -1 -20 -18 -5 -27 24 -32 21 -31 -15 1 -26 3 -28
6 -10 l5 24 24 -23 24 -22 0 36 c0 20 -2 37 -5 37 -3 0 -5 -10 -5 -22z"/>
<path d="M1520 1471 c-15 -30 -2 -53 29 -49 19 2 27 10 29 27 6 39 -39 56 -58
22z m48 -19 c3 -17 -2 -22 -17 -22 -14 0 -21 6 -21 18 0 38 33 41 38 4z"/>
<path d="M1602 1458 l-2 -37 53 2 c48 2 52 4 52 26 0 32 -28 49 -49 32 -9 -8
-16 -22 -16 -32 0 -33 -28 -21 -33 14 -4 32 -4 32 -5 -5z m86 -6 c2 -14 -2
-22 -11 -22 -17 0 -26 19 -19 38 7 19 27 9 30 -16z"/>
<path d="M1730 1475 c-19 -23 -8 -50 23 -53 19 -2 27 1 27 12 0 9 -5 16 -11
16 -5 0 -7 -5 -3 -11 4 -7 -1 -10 -12 -7 -29 5 -25 44 4 41 12 -2 22 2 22 7 0
15 -36 12 -50 -5z"/>
<path d="M1795 1475 c4 -11 10 -28 12 -37 3 -10 10 -18 15 -18 6 0 8 6 5 14
-3 7 1 23 9 35 8 11 11 21 6 21 -6 0 -13 -7 -16 -17 -6 -14 -8 -14 -22 3 -15
19 -15 19 -9 -1z"/>
<path d="M1230 1361 c0 -37 24 -59 45 -41 16 14 21 70 6 70 -6 0 -9 -12 -8
-26 1 -15 -4 -29 -10 -31 -9 -3 -13 6 -13 26 0 17 -4 31 -10 31 -5 0 -10 -13
-10 -29z"/>
<path d="M1350 1370 c0 -22 -1 -23 -20 -5 -20 18 -20 17 -19 -16 1 -19 3 -26
6 -16 4 17 6 17 23 2 16 -15 18 -14 24 11 4 15 2 32 -3 37 -8 8 -11 4 -11 -13z"/>
<path d="M1425 1365 c9 -44 23 -52 35 -21 13 35 12 59 -1 26 l-10 -25 -15 25
-15 25 6 -30z"/>
<path d="M1487 1383 c-4 -3 -7 -19 -7 -35 0 -22 4 -28 23 -28 18 0 19 2 7 10
-13 9 -13 11 0 20 10 6 11 10 3 10 -7 0 -13 5 -13 11 0 5 5 7 10 4 6 -3 10 -1
10 4 0 12 -23 15 -33 4z"/>
<path d="M1541 1353 c0 -21 3 -33 5 -27 4 9 14 8 35 -3 39 -19 61 -4 41 27
-15 24 -15 33 -2 25 6 -3 10 -1 10 4 0 14 -13 14 -28 -1 -9 -9 -8 -16 6 -31
16 -18 16 -19 -8 -16 -18 3 -24 10 -23 24 1 18 -12 34 -29 35 -5 0 -8 -17 -7
-37z"/>
<path d="M1675 1380 c-4 -6 -1 -9 7 -8 8 2 13 -7 13 -24 -1 -16 3 -28 7 -28 4
0 8 14 8 30 0 17 4 30 9 30 14 0 41 -41 35 -52 -3 -4 -1 -8 4 -8 5 0 12 8 15
18 2 9 8 26 12 37 6 19 6 19 -8 2 -13 -15 -15 -16 -21 -2 -6 17 -71 21 -81 5z"/>
<path d="M1416 1204 c-17 -44 94 -174 150 -174 29 0 35 18 19 64 -18 51 -21
52 -47 22 -16 -19 -29 -25 -41 -21 -25 10 -21 40 8 53 33 15 32 28 -7 52 -40
24 -74 26 -82 4z"/>
<path d="M1535 1159 c-31 -28 -47 -61 -27 -58 12 2 85 89 74 89 -6 0 -27 -14
-47 -31z"/>
<path d="M1400 1140 c0 -67 64 -130 133 -130 16 0 9 7 -24 28 -51 33 -63 46
-89 98 l-19 39 -1 -35z"/>
<path d="M1330 1030 l0 -70 68 -1 67 -2 -55 -6 c-30 -4 -66 -5 -79 -3 -22 4
-23 8 -19 58 5 54 5 54 -24 54 -25 0 -28 -3 -23 -20 5 -16 2 -20 -14 -20 -28
0 -27 -3 15 -58 l35 -48 57 12 c31 7 74 16 95 19 35 6 37 8 31 33 -4 15 -12
29 -18 31 -21 8 -66 60 -66 75 0 12 -10 16 -35 16 l-35 0 0 -70z m100 -32 c-9
-12 -79 -18 -85 -8 -10 16 6 59 23 63 19 4 72 -44 62 -55z"/>
<path d="M1608 1067 c5 -41 -12 -57 -68 -64 -36 -5 -40 -8 -40 -35 0 -25 2
-27 19 -18 11 5 46 10 78 10 l58 0 2 70 3 70 -28 0 c-26 0 -28 -3 -24 -33z"/>
<path d="M1670 1005 c0 -61 5 -58 -90 -57 l-55 1 48 -9 c27 -5 62 -13 78 -19
27 -9 31 -7 64 36 38 50 42 63 21 63 -7 0 -19 -14 -27 -32 -7 -17 -15 -26 -17
-20 -2 6 4 24 12 41 22 41 20 51 -9 51 -24 0 -25 -3 -25 -55z"/>
<path d="M1803 856 c6 -14 3 -15 -13 -6 -21 12 -23 6 -10 -25 5 -11 9 -14 9
-7 1 9 8 11 20 7 16 -5 18 -2 14 15 -3 11 -10 23 -16 27 -6 4 -8 0 -4 -11z"/>
<path d="M1210 853 c0 -6 -3 -20 -6 -30 -5 -15 -4 -15 5 -3 8 11 11 12 11 2 0
-7 5 -10 10 -7 6 3 10 0 11 -7 0 -7 4 -4 9 7 13 30 12 39 -4 26 -11 -10 -17
-8 -25 6 -6 10 -11 13 -11 6z"/>
<path d="M1270 831 c0 -5 -3 -16 -6 -25 -3 -9 -1 -16 5 -16 6 0 11 10 11 23 0
17 2 19 9 7 6 -8 7 -18 4 -24 -4 -5 -1 -6 7 -1 7 4 16 2 21 -6 6 -10 9 -6 9
14 0 28 -14 37 -23 15 -3 -8 -6 -6 -6 5 -1 17 -31 25 -31 8z"/>
<path d="M1675 835 c-5 -2 -22 -6 -37 -9 -19 -4 -28 -13 -28 -27 0 -23 26 -37
42 -21 7 7 4 10 -8 9 -27 -3 -23 25 4 29 16 3 22 -1 22 -16 0 -11 4 -20 8 -20
5 0 9 14 9 30 0 17 -1 30 -1 29 -1 0 -5 -2 -11 -4z"/>
<path d="M1345 802 c-3 -14 -4 -27 0 -30 3 -3 5 0 5 8 0 10 3 10 16 -1 13 -11
15 -10 12 6 -1 10 3 20 11 23 10 3 12 -1 8 -17 -3 -11 -2 -21 3 -21 4 0 10 11
12 24 4 21 1 25 -28 28 -28 3 -34 0 -39 -20z"/>
<path d="M1520 805 c-7 -8 -10 -22 -6 -30 7 -20 46 -20 46 0 0 8 -5 15 -11 15
-5 0 -7 -5 -3 -11 4 -7 1 -10 -7 -7 -21 7 -17 34 5 30 11 -2 15 1 11 7 -9 15
-20 14 -35 -4z"/>
<path d="M1914 809 c-4 -7 0 -17 10 -24 15 -12 15 -13 -4 -18 -18 -5 -25 3
-21 26 0 4 -3 7 -9 7 -12 0 -13 -20 -2 -38 7 -9 15 -10 35 -3 30 12 32 18 13
44 -10 13 -16 15 -22 6z"/>
<path d="M1054 788 c-17 -19 -17 -21 -1 -15 9 4 17 3 17 -1 0 -7 62 -42 73
-42 1 0 3 15 4 33 1 30 1 30 -9 10 -15 -31 -32 -29 -24 2 4 14 2 25 -3 25 -5
0 -12 -10 -14 -22 -4 -20 -4 -19 -6 5 -1 33 -12 34 -37 5z"/>
<path d="M1461 784 c0 -16 3 -23 6 -16 4 10 8 10 19 1 11 -9 14 -6 13 17 0 16
-3 23 -6 16 -4 -10 -8 -10 -19 -1 -11 9 -14 6 -13 -17z"/>
<path d="M1856 775 c5 -11 2 -13 -10 -9 -19 7 -23 -21 -4 -32 7 -5 8 -3 3 6
-6 10 -3 12 14 7 17 -4 21 -2 17 10 -3 8 -6 19 -6 24 0 5 -4 9 -10 9 -5 0 -7
-7 -4 -15z"/>
<path d="M1182 748 c-13 -13 -16 -29 -4 -26 4 1 18 -4 31 -11 13 -7 33 -11 45
-9 12 3 28 -1 34 -9 7 -7 24 -13 38 -13 21 0 25 4 22 22 -3 26 -38 38 -38 14
0 -9 -4 -16 -10 -16 -5 0 -10 10 -10 23 -1 20 -2 21 -14 5 -17 -22 -46 -23
-46 -2 0 10 6 14 15 10 8 -3 15 0 15 5 0 7 -11 9 -25 7 -14 -3 -25 -1 -25 3 0
13 -14 11 -28 -3z"/>
<path d="M1770 753 c0 -6 -9 -9 -22 -5 -17 4 -20 2 -15 -12 4 -10 7 -22 7 -27
0 -5 4 -9 10 -9 5 0 7 7 4 15 -4 9 0 15 9 15 8 0 17 -6 20 -12 2 -7 7 -11 10
-8 3 3 -1 16 -8 30 -8 14 -14 20 -15 13z"/>
<path d="M1709 720 c-4 -28 -35 -35 -33 -7 1 9 -2 17 -7 17 -5 0 -9 -7 -9 -16
0 -8 -5 -12 -10 -9 -6 4 -7 12 -4 18 5 9 3 9 -6 0 -10 -10 -11 -15 -1 -27 9
-11 9 -15 -1 -19 -9 -4 -9 -6 -1 -6 6 -1 14 3 18 9 3 5 12 7 20 3 9 -3 21 0
29 6 7 6 16 8 19 4 9 -8 8 7 -2 32 -8 19 -9 18 -12 -5z"/>
<path d="M1360 695 c0 -24 3 -26 40 -22 23 2 41 -1 44 -7 2 -6 5 1 5 17 1 15
-3 27 -9 27 -5 0 -10 -6 -10 -12 0 -8 -7 -5 -15 6 -15 19 -15 19 -15 -2 0 -14
-6 -22 -17 -22 -10 0 -14 4 -8 8 16 12 16 32 0 32 -9 0 -15 -9 -15 -25z"/>
<path d="M1500 710 c-7 -4 -19 -6 -27 -3 -9 4 -13 -3 -12 -23 1 -29 1 -29 8
-4 7 25 7 25 13 3 6 -22 48 -34 48 -14 0 5 -7 8 -16 7 -26 -2 -28 22 -2 26 13
2 18 6 13 10 -6 4 -17 3 -25 -2z"/>
<path d="M1560 712 c-13 -5 -13 -52 0 -52 6 0 10 12 10 26 0 15 4 23 11 19 6
-4 8 -13 5 -21 -3 -8 -1 -14 4 -14 6 0 10 8 11 18 0 14 2 14 9 -3 8 -18 9 -17
9 6 1 23 -3 27 -24 25 -14 0 -29 -2 -35 -4z"/>
<path d="M1398 580 c-5 -30 6 -41 15 -17 4 9 6 9 6 -1 1 -7 5 -11 10 -8 9 6
-9 56 -20 56 -4 0 -9 -13 -11 -30z"/>
<path d="M1570 602 c0 -6 5 -14 11 -18 8 -4 8 -9 0 -17 -14 -14 -14 -27 -1
-27 6 0 10 8 10 17 0 13 3 14 12 5 19 -19 33 -14 15 6 -13 14 -14 21 -5 30 9
9 9 12 0 12 -7 0 -12 -5 -12 -11 0 -8 -5 -8 -15 1 -9 8 -15 9 -15 2z"/>
</g>
</svg>
